<svg width="40" height="40" viewBox="0 0 40 40" fill="none" xmlns="http://www.w3.org/2000/svg">
<path d="M30.4109 26.4608C29.1041 25.1706 27.4726 25.1706 26.1741 26.4608C25.1836 27.443 24.193 28.4252 23.2191 29.424C22.9528 29.6987 22.728 29.7569 22.4034 29.5738C21.7625 29.2242 21.0799 28.9412 20.464 28.5583C17.5922 26.7521 15.1867 24.4298 13.0558 21.8162C11.9986 20.5177 11.058 19.1277 10.4005 17.5628C10.2673 17.2466 10.2923 17.0385 10.5503 16.7804C11.5408 15.8232 12.5064 14.841 13.4803 13.8588C14.8371 12.4938 14.8371 10.8956 13.472 9.52224C12.6978 8.73982 11.9237 7.97405 11.1496 7.19163C10.3505 6.39256 9.55976 5.58517 8.75235 4.79443C7.44551 3.52092 5.81404 3.52092 4.51553 4.80275C3.51667 5.78494 2.55943 6.7921 1.54392 7.75763C0.603332 8.64826 0.128875 9.73865 0.0289887 11.0122C-0.129164 13.0847 0.378589 15.0408 1.09444 16.9469C2.55943 20.8923 4.79021 24.3965 7.49545 27.6094C11.1496 31.9544 15.5113 35.392 20.6138 37.8725C22.9112 38.9878 25.2918 39.8452 27.8805 39.9867C29.6618 40.0865 31.21 39.6371 32.4503 38.247C33.2993 37.2981 34.2565 36.4325 35.1555 35.5252C36.4873 34.1768 36.4956 32.5454 35.1721 31.2136C33.5906 29.6238 32.0008 28.0423 30.4109 26.4608Z" fill="#FFD100"/>
<path d="M28.8218 19.8269L31.8933 19.3025C31.4106 16.4808 30.0787 13.9255 28.0561 11.8945C25.9168 9.75533 23.2116 8.4069 20.2317 7.99072L19.7988 11.0788C22.1045 11.4034 24.2021 12.4439 25.8586 14.1003C27.4234 15.6651 28.4473 17.6461 28.8218 19.8269Z" fill="#FFD100"/>
<path d="M33.6231 6.47577C30.0771 2.92991 25.5906 0.69086 20.6379 0L20.2051 3.08806C24.4835 3.68736 28.3624 5.62676 31.4256 8.68153C34.3306 11.5865 36.2367 15.2572 36.9276 19.2941L39.9991 18.7697C39.1917 14.0919 36.9859 9.84683 33.6231 6.47577Z" fill="#FFD100"/>
</svg>
