<svg width="32" height="40" viewBox="0 0 32 40" fill="none" xmlns="http://www.w3.org/2000/svg">
<path d="M1.79385 8.43491C2.98461 6.1348 4.74647 4.16487 6.91745 2.70623C9.08842 1.24758 11.5989 0.347022 14.2179 0.0873479C15.4027 -0.029116 16.5964 -0.029116 17.7812 0.0873479C20.4003 0.347192 22.9107 1.24772 25.0817 2.7062C27.2528 4.16467 29.0149 6.13431 30.2061 8.43414C31.7049 11.3686 32.2838 14.6719 31.8699 17.9281C31.4561 21.1843 30.068 24.2476 27.8804 26.7324L17.2131 39.4385C17.0658 39.614 16.8806 39.7555 16.6708 39.8526C16.4611 39.9496 16.232 40 16 40C15.768 40 15.5389 39.9496 15.3291 39.8526C15.1194 39.7555 14.9342 39.614 14.7869 39.4385L4.11955 26.7324C1.93204 24.2478 0.543924 21.1845 0.130064 17.9285C-0.283798 14.6724 0.295103 11.3692 1.79385 8.43491ZM16 21.5376C17.2423 21.5376 18.4568 21.1767 19.4898 20.5005C20.5227 19.8243 21.3279 18.8632 21.8033 17.7387C22.2787 16.6142 22.4031 15.3768 22.1607 14.1831C21.9184 12.9893 21.3201 11.8928 20.4416 11.0321C19.5632 10.1715 18.4439 9.58539 17.2254 9.34794C16.0069 9.11049 14.744 9.23236 13.5962 9.69813C12.4484 10.1639 11.4674 10.9527 10.7771 11.9647C10.0869 12.9767 9.71853 14.1665 9.71853 15.3837C9.72048 17.0152 10.3829 18.5794 11.5605 19.7331C12.7381 20.8867 14.3346 21.5357 16 21.5376Z" fill="#FFD100"/>
</svg>
