<svg width="42" height="32" viewBox="0 0 42 32" fill="none" xmlns="http://www.w3.org/2000/svg">
<path d="M24.51 20.8146C23.4651 21.5233 22.2514 21.8979 21 21.8979C19.7487 21.8979 18.535 21.5233 17.49 20.8146L0.279644 9.14245C0.18416 9.0777 0.0911367 9.01019 0 8.94076V28.0669C0 30.2597 1.74932 32 3.86638 32H38.1335C40.2892 32 41.9999 30.2205 41.9999 28.0669V8.94067C41.9086 9.01027 41.8154 9.07795 41.7197 9.14279L24.51 20.8146Z" fill="#FFD100"/>
<path d="M1.64473 7.05906L18.8551 18.7313C19.5066 19.1732 20.2533 19.3941 20.9999 19.3941C21.7466 19.3941 22.4934 19.1731 23.1449 18.7313L40.3553 7.05906C41.3852 6.36102 42 5.19274 42 3.93184C42 1.76377 40.2661 0 38.1349 0H3.86507C1.73389 8.34484e-05 0 1.76385 0 3.93392C0 5.19274 0.614906 6.36102 1.64473 7.05906Z" fill="#FFD100"/>
</svg>
