<svg width="35" height="34" viewBox="0 0 35 34" fill="none" xmlns="http://www.w3.org/2000/svg">
<path d="M33.602 14.0444L19.7356 14.0437C19.1233 14.0437 18.627 14.54 18.627 15.1524V19.5827C18.627 20.1949 19.1233 20.6914 19.7355 20.6914H27.5442C26.6892 22.9107 25.0933 24.7693 23.0571 25.9503L26.3867 31.7149C31.7279 28.6255 34.8856 23.2049 34.8856 17.1369C34.8856 16.2729 34.8219 15.6552 34.6946 14.9598C34.5978 14.4314 34.1391 14.0444 33.602 14.0444Z" fill="#167EE6"/>
<path d="M17.8887 27.3477C14.0673 27.3477 10.7312 25.2595 8.93947 22.1694L3.17578 25.492C6.10888 30.5761 11.6035 33.9998 17.8887 33.9998C20.972 33.9998 23.8813 33.1695 26.3876 31.7226V31.7147L23.0579 25.95C21.5349 26.8335 19.7725 27.3477 17.8887 27.3477Z" fill="#12B347"/>
<path d="M26.3875 31.7228V31.7149L23.0579 25.9502C21.5349 26.8336 19.7726 27.3478 17.8887 27.3478V34C20.972 34 23.8814 33.1697 26.3875 31.7228Z" fill="#0F993E"/>
<path d="M7.54191 17.0001C7.54191 15.1162 8.05596 13.3537 8.93911 11.8306L3.17542 8.50806C1.72072 11.0067 0.890625 13.9085 0.890625 17.0001C0.890625 20.0917 1.72072 22.9935 3.17542 25.4921L8.93911 22.1696C8.05596 20.6464 7.54191 18.8839 7.54191 17.0001Z" fill="#FFD100"/>
<path d="M17.8887 6.65212C20.3807 6.65212 22.6696 7.53771 24.4575 9.01078C24.8986 9.37416 25.5397 9.34793 25.9437 8.94385L29.0823 5.80485C29.5407 5.34639 29.508 4.59594 29.0183 4.17107C26.0228 1.57202 22.1253 0 17.8887 0C11.6035 0 6.10888 3.42368 3.17578 8.50783L8.93947 11.8304C10.7312 8.74031 14.0673 6.65212 17.8887 6.65212Z" fill="#FF4B26"/>
<path d="M24.4575 9.01078C24.8986 9.37416 25.5397 9.34793 25.9437 8.94385L29.0823 5.80485C29.5406 5.34639 29.5079 4.59594 29.0183 4.17107C26.0228 1.57195 22.1253 0 17.8887 0V6.65212C20.3806 6.65212 22.6696 7.53771 24.4575 9.01078Z" fill="#D93F21"/>
</svg>
