<svg width="20" height="23" viewBox="0 0 20 23" fill="none" xmlns="http://www.w3.org/2000/svg">
<path d="M19.9893 5.75889C18.6881 5.75889 17.4876 5.32337 16.5235 4.58866C15.4178 3.74643 14.6234 2.51096 14.3429 1.08699C14.2734 0.735158 14.236 0.372078 14.2325 0H10.5156V10.2616L10.5111 15.8824C10.5111 17.3851 9.54259 18.6592 8.20002 19.1074C7.81039 19.2374 7.38958 19.299 6.95141 19.2747C6.39212 19.2437 5.868 19.0732 5.41246 18.7978C4.44305 18.212 3.78579 17.1493 3.76798 15.9337C3.73993 14.0337 5.26017 12.4846 7.13933 12.4846C7.51026 12.4846 7.8665 12.5458 8.20002 12.6569V9.85219V8.84394C7.84824 8.7913 7.49022 8.76385 7.12819 8.76385C5.07137 8.76385 3.14768 9.62769 1.77261 11.1839C0.733284 12.36 0.109868 13.8605 0.0136837 15.4338C-0.112335 17.5007 0.636209 19.4655 2.08788 20.9151C2.30117 21.1279 2.52516 21.3254 2.75938 21.5076C4.00399 22.4754 5.52557 23 7.12819 23C7.49022 23 7.84824 22.973 8.20002 22.9204C9.69711 22.6963 11.0784 22.0039 12.1685 20.9151C13.508 19.5775 14.248 17.8017 14.2561 15.9116L14.2369 7.51805C14.8759 8.0161 15.5746 8.42822 16.3245 8.74811C17.4907 9.24526 18.7273 9.49721 19.9999 9.49676V6.76984V5.75799C20.0008 5.75889 19.9902 5.75889 19.9893 5.75889Z" fill="white"/>
</svg>
