<svg width="83" height="58" viewBox="0 0 83 58" fill="none" xmlns="http://www.w3.org/2000/svg">
<path d="M1.0008 57.0001L38.2359 57.0001C42.9642 57.0001 47.5647 55.8211 51.6843 53.5706C52.9121 52.8998 53.2987 51.3115 52.522 50.1439L50.62 47.285C46.9421 49.7556 42.6598 51.0614 38.2359 51.0614L1.0008 51.0614V57.0001Z" stroke="#FFD100" stroke-width="2" stroke-miterlimit="10" stroke-linecap="round" stroke-linejoin="round"/>
<path d="M50.6191 47.2849C49.0044 44.9658 46.5635 43.3598 43.8025 42.7998C36.4885 41.3164 29.4461 38.7081 22.9237 35.067L17.8709 32.2462C17.1672 31.8533 16.3025 32.3646 16.3025 33.1734C16.3025 35.887 14.1133 38.087 11.4127 38.087H10.0573C8.42318 38.087 6.85422 37.4434 5.68685 36.2945L4.0605 34.6934C2.10212 36.6388 0.999982 39.2908 0.999982 42.0578V51.0614" stroke="#FFD100" stroke-width="2" stroke-miterlimit="10" stroke-linecap="round" stroke-linejoin="round"/>
<path d="M39.0273 41.6608C37.6163 44.5975 37.3747 47.959 38.3026 51.0411" stroke="#FFD100" stroke-width="2" stroke-miterlimit="10" stroke-linecap="round" stroke-linejoin="round"/>
<path d="M37.75 46.7129C31.6682 45.2121 25.8081 42.9026 20.326 39.8422L14.8666 36.7944" stroke="#FFD100" stroke-width="2" stroke-miterlimit="10" stroke-linecap="round" stroke-linejoin="round"/>
<path d="M22.5156 41.0144C22.5156 44.4152 19.2248 46.8341 15.9995 45.8042L7.51619 43.0952C4.29082 42.0653 0.999981 44.4843 0.999981 47.8849" stroke="#FFD100" stroke-width="2" stroke-miterlimit="10" stroke-linecap="round" stroke-linejoin="round"/>
<path d="M33.0664 39.9104L31.5137 44.6406" stroke="#FFD100" stroke-width="2" stroke-miterlimit="10" stroke-linecap="round" stroke-linejoin="round"/>
<path d="M27.5645 37.7857L25.9636 42.6626" stroke="#FFD100" stroke-width="2" stroke-miterlimit="10" stroke-linecap="round" stroke-linejoin="round"/>
<path d="M22.2852 34.9911L20.6704 39.9104" stroke="#FFD100" stroke-width="2" stroke-miterlimit="10" stroke-linecap="round" stroke-linejoin="round"/>
<path d="M45.9375 1.00016C47.5613 1.85845 50.9645 3.37915 55.5195 3.37915C60.0745 3.37915 63.4778 1.85845 65.1015 1.00016" stroke="#FFD100" stroke-width="2" stroke-miterlimit="10" stroke-linejoin="round"/>
<path d="M56.6248 55.8846C56.6248 56.5007 56.1298 57.0001 55.5194 57.0001C54.9089 57.0001 54.4141 56.5007 54.4141 55.8846C54.4141 55.2685 54.9089 54.769 55.5194 54.769C56.1298 54.769 56.6248 55.2685 56.6248 55.8846Z" fill="#FFD100"/>
<path d="M38.0195 51.4225H73.0189" stroke="#FFD100" stroke-width="2" stroke-miterlimit="10" stroke-linejoin="round"/>
<path d="M73.0195 28.4423V18.5537" stroke="#FFD100" stroke-width="2" stroke-miterlimit="10" stroke-linecap="round" stroke-linejoin="round"/>
<path d="M65.1021 1.00022L73.2983 4.21464C75.0609 4.90583 76.4473 6.32334 77.1089 8.11099L81.9308 21.137C82.1073 21.6137 81.9417 22.1504 81.5284 22.4417L73.0197 28.4424V54.7691C73.0197 55.3852 72.5248 55.8846 71.9143 55.8846H60.4941" stroke="#FFD100" stroke-width="2" stroke-miterlimit="10" stroke-linecap="round" stroke-linejoin="round"/>
<path d="M41.8086 2.6189C42.7559 5.51148 44.5189 7.9969 46.9241 9.82192C49.4355 11.7284 52.4077 12.7368 55.5193 12.7368C58.6308 12.7368 61.6031 11.7284 64.1145 9.82192C66.5197 7.9969 68.2827 5.51148 69.23 2.6189" stroke="#FFD100" stroke-width="2" stroke-miterlimit="10" stroke-linecap="round" stroke-linejoin="round"/>
<path d="M45.9375 1.00022C47.252 5.31779 51.1469 8.27441 55.5195 8.27441C59.8923 8.27441 63.7871 5.31779 65.1015 1.00022" stroke="#FFD100" stroke-width="2" stroke-miterlimit="10" stroke-linecap="round" stroke-linejoin="round"/>
<path d="M50.5458 55.8846H39.1256C38.5151 55.8846 38.0202 55.3852 38.0202 54.7691V28.4424L29.5114 22.4417C29.0981 22.1504 28.9326 21.6137 29.109 21.137L33.931 8.11099C34.5927 6.32334 35.979 4.90583 37.7415 4.21464L45.9378 1.00022" stroke="#FFD100" stroke-width="2" stroke-miterlimit="10" stroke-linecap="round" stroke-linejoin="round"/>
<path d="M38.0195 28.4423V18.5537" stroke="#FFD100" stroke-width="2" stroke-miterlimit="10" stroke-linecap="round" stroke-linejoin="round"/>
</svg>
