<svg width="77" height="60" viewBox="0 0 77 60" fill="none" xmlns="http://www.w3.org/2000/svg">
<path d="M13.1952 28.5431C6.91406 29.1344 2 34.3945 2 40.7959V53.9013C2 56.1651 3.84498 58 6.1212 58H34.3788C36.655 58 38.5 56.1651 38.5 53.9013V40.7959C38.5 34.3896 33.5787 29.1266 27.2909 28.5417" stroke="#FFD100" stroke-width="3" stroke-miterlimit="10" stroke-linecap="round" stroke-linejoin="round"/>
<path d="M34.0775 15.7523C34.0775 23.3475 27.8865 29.5046 20.2497 29.5046C12.6128 29.5046 6.42188 23.3475 6.42188 15.7523C6.42188 8.15718 12.6128 2.00006 20.2497 2.00006C27.8865 2.00006 34.0775 8.15718 34.0775 15.7523Z" stroke="#FFD100" stroke-width="3" stroke-miterlimit="10" stroke-linecap="round" stroke-linejoin="round"/>
<path d="M49.6952 28.5431C43.4141 29.1344 38.5 34.3945 38.5 40.7959V53.9013C38.5 56.1651 40.345 58 42.6212 58H70.8788C73.155 58 75 56.1651 75 53.9013V40.7959C75 34.3896 70.0787 29.1266 63.7909 28.5417" stroke="#FFD100" stroke-width="3" stroke-miterlimit="10" stroke-linecap="round" stroke-linejoin="round"/>
<path d="M70.5775 15.7523C70.5775 23.3475 64.3865 29.5046 56.7497 29.5046C49.1128 29.5046 42.9219 23.3475 42.9219 15.7523C42.9219 8.15718 49.1128 2.00006 56.7497 2.00006C64.3865 2.00006 70.5775 8.15718 70.5775 15.7523Z" stroke="#FFD100" stroke-width="3" stroke-miterlimit="10" stroke-linecap="round" stroke-linejoin="round"/>
</svg>
