<svg width="59" height="59" viewBox="0 0 59 59" fill="none" xmlns="http://www.w3.org/2000/svg">
<path d="M15.1016 24.3664V19.0928H23.8491V40.0439H18.0269V24.3664H15.1016Z" fill="#FFD100"/>
<path d="M27.022 36.6046V31.9615L35.7412 19.408H41.8474V31.7322H44.0343V36.6046H41.8474V40.0439H36.224V36.6046H27.022ZM36.65 25.7421L32.7307 31.7322H36.65V25.7421Z" fill="#FFD100"/>
<path d="M52.5417 21.696C53.3912 24.2032 53.8221 26.8255 53.8221 29.5001C53.8221 42.911 42.9113 53.8218 29.5001 53.8218C16.0889 53.8218 5.17787 42.911 5.17787 29.5001C5.17787 16.0888 16.0887 5.17848 29.4999 5.17848C32.1749 5.17848 34.7973 5.60905 37.3041 6.4589V1.04641C34.772 0.352295 32.1567 0.00012207 29.5001 0.00012207C13.2338 0.00012207 0 13.2338 0 29.5001C0 45.7665 13.2338 59.0001 29.5001 59.0001C45.7664 59.0001 59 45.7665 59 29.5001C59 26.8437 58.648 24.2283 57.9539 21.696H52.5417Z" fill="#FFD100"/>
<path d="M51.069 7.91392V2.25745H47.0015V7.91392H41.3789V11.981H47.0015V17.6373H51.069V11.981H56.7252V7.91392H51.069Z" fill="#FFD100"/>
</svg>
