<svg width="77" height="71" viewBox="0 0 77 71" fill="none" xmlns="http://www.w3.org/2000/svg">
<path d="M75.826 0H31.2188C30.5705 0 30.0449 0.529797 30.0449 1.18333C30.0449 1.83687 30.5705 2.36667 31.2188 2.36667H75.826C76.4744 2.36667 76.9999 1.83687 76.9999 1.18333C76.9999 0.529797 76.4744 0 75.826 0Z" fill="#FFD100"/>
<path d="M75.826 68.6334H31.2188C30.5705 68.6334 30.0449 69.1632 30.0449 69.8168C30.0449 70.4703 30.5705 71.0001 31.2188 71.0001H75.826C76.4744 71.0001 76.9999 70.4703 76.9999 69.8168C76.9999 69.1632 76.4744 68.6334 75.826 68.6334Z" fill="#FFD100"/>
<path d="M61.5615 56.1728C61.2179 55.6173 60.4926 55.4478 59.9416 55.7942C59.3905 56.1405 59.2223 56.8717 59.5659 57.4272L65.4353 66.8938C65.6493 67.242 66.0268 67.4538 66.4331 67.4538C66.8394 67.4538 67.2168 67.242 67.4309 66.8938L73.3003 57.4272C73.6439 56.8717 73.4757 56.1405 72.9246 55.7942C72.3736 55.4478 71.6483 55.6173 71.3047 56.1728L67.6093 62.1404V8.8596L71.3094 14.8272C71.5316 15.1865 71.9272 15.399 72.3471 15.3846C72.7669 15.3703 73.1473 15.1312 73.3449 14.7575C73.5424 14.3838 73.5272 13.9322 73.305 13.5728L67.4356 4.10615C67.2069 3.77912 66.8347 3.58459 66.4378 3.58459C66.0409 3.58459 65.6687 3.77912 65.44 4.10615L59.5706 13.5728C59.227 14.1283 59.3952 14.8594 59.9463 15.2058C60.4973 15.5522 61.2226 15.3827 61.5662 14.8272L65.2616 8.8596V62.1404L61.5615 56.1728Z" fill="#FFD100"/>
<path d="M21.9118 65.0518V42.6723C22.4134 42.8594 22.9428 42.9576 23.4773 42.9634C26.0688 42.9605 28.1695 40.8429 28.1724 38.2298V27.186C28.1674 22.8308 24.6667 19.3019 20.3471 19.2969H7.8253C3.50569 19.3019 0.00501516 22.8308 0 27.186V38.2298C0.00286589 40.8429 2.10284 42.9605 4.69504 42.9634C5.22953 42.9583 5.759 42.8594 6.26053 42.6723V65.0518C6.25193 66.9231 7.3424 68.6211 9.03829 69.3802C10.7342 70.1393 12.7152 69.8157 14.0858 68.5547C15.4572 69.8157 17.4382 70.1393 19.1341 69.3802C20.83 68.6211 21.9204 66.9231 21.9118 65.0518ZM4.69504 39.8079C3.83097 39.8072 3.13098 39.1008 3.13026 38.2298V27.186C3.13313 24.5729 5.23311 22.4553 7.8253 22.4524H20.3471C22.9385 22.4553 25.0392 24.5729 25.0421 27.186V38.2298C25.0421 39.1015 24.3414 39.8079 23.4773 39.8079C22.6126 39.8079 21.9118 39.1015 21.9118 38.2298V30.3414C21.9118 29.4697 21.2111 28.7633 20.3471 28.7633C19.4823 28.7633 18.7816 29.4697 18.7816 30.3414V46.1189H9.39079V30.3414C9.39079 29.4697 8.69008 28.7633 7.8253 28.7633C6.96124 28.7633 6.26053 29.4697 6.26053 30.3414V38.2298C6.25981 39.1008 5.5591 39.8072 4.69504 39.8079ZM10.9556 66.6299C10.0915 66.6292 9.39151 65.9228 9.39079 65.0518V49.2744H12.5211V65.0518C12.5203 65.9228 11.8196 66.6292 10.9556 66.6299ZM15.6513 65.0518V49.2744H18.7816V65.0518C18.7816 65.9235 18.0809 66.6299 17.2161 66.6299C16.352 66.6299 15.6513 65.9235 15.6513 65.0518Z" fill="#FFD100"/>
<path d="M14.086 17.7188C18.4085 17.7188 21.9121 14.1871 21.9121 9.83048C21.9121 5.47318 18.4085 1.94141 14.086 1.94141C9.76429 1.94141 6.26074 5.47318 6.26074 9.83048C6.26576 14.1849 9.76644 17.7138 14.086 17.7188ZM14.086 5.09689C16.6797 5.09689 18.7818 7.21596 18.7818 9.83048C18.7818 12.4443 16.6797 14.5634 14.086 14.5634C11.4931 14.5634 9.39101 12.4443 9.39101 9.83048C9.39387 7.2174 11.4946 5.09978 14.086 5.09689Z" fill="#FFD100"/>
<path d="M31 29V30.6392H32.7691V37.8264H34.8161V29H31Z" fill="#FFD100"/>
<path d="M37.5152 37.9272C38.1975 37.9272 38.7409 37.4103 38.7409 36.6915C38.7409 35.9602 38.1975 35.4811 37.5152 35.4811C36.8328 35.4811 36.2895 35.9602 36.2895 36.6915C36.2895 37.4103 36.8328 37.9272 37.5152 37.9272Z" fill="#FFD100"/>
<path d="M47.7595 34.3084H46.319V32.6566H44.3857V34.3084H42.0101L45.8768 29H43.7286L39.5587 34.5984V35.9728H44.3225V37.8264H46.319V35.9728H47.7595V34.3084Z" fill="#FFD100"/>
<path d="M58.3128 30.9418C57.2893 30.9418 56.4048 31.3579 55.8614 32.0514C55.3813 31.3075 54.5725 30.9418 53.6248 30.9418C52.7529 30.9418 51.9948 31.2444 51.4893 31.8244V31.0427H49.6065V37.8264H51.5778V34.4219C51.5778 33.2114 52.197 32.644 53.0688 32.644C53.8902 32.644 54.3577 33.1484 54.3577 34.2454V37.8264H56.329V34.4219C56.329 33.2114 56.9481 32.644 57.8327 32.644C58.6287 32.644 59.1215 33.1484 59.1215 34.2454V37.8264H61.0928V33.9428C61.0928 31.8749 59.9303 30.9418 58.3128 30.9418Z" fill="#FFD100"/>
</svg>
